<?xml version="1.0" encoding="UTF-8"?>
<svg id="Layer_1" xmlns="http://www.w3.org/2000/svg" version="1.1" viewBox="0 0 512 512">
  <!-- Generator: Adobe Illustrator 29.4.0, SVG Export Plug-In . SVG Version: 2.1.0 Build 152)  -->
  <defs>
    <style>
      .st0 {
        fill: #042a4a;
      }
    </style>
  </defs>
  <path class="st0" d="M136,4c-50.7,0-92,41.3-92,92v320c0,50.7,41.3,92,92,92h240c50.7,0,92-41.3,92-92V96c0-50.7-41.3-92-92-92h-240ZM136,28h240c37.5,0,68,30.5,68,68v320c0,37.5-30.5,68-68,68h-240c-37.5,0-68-30.5-68-68V96c0-37.5,30.5-68,68-68ZM136,204c-6.6,0-12,5.4-12,12s5.4,12,12,12h240c6.6,0,12-5.4,12-12s-5.4-12-12-12h-240ZM136,284c-6.6,0-12,5.4-12,12s5.4,12,12,12h240c6.6,0,12-5.4,12-12s-5.4-12-12-12h-240ZM136,364c-6.6,0-12,5.4-12,12s5.4,12,12,12h120c6.6,0,12-5.4,12-12s-5.4-12-12-12h-120Z"/>
</svg>