<?xml version="1.0" encoding="UTF-8"?>
<svg id="Layer_1" xmlns="http://www.w3.org/2000/svg" version="1.1" viewBox="0 0 512 512">
  <!-- Generator: Adobe Illustrator 29.4.0, SVG Export Plug-In . SVG Version: 2.1.0 Build 152)  -->
  <defs>
    <style>
      .st0 {
        fill: #042a4a;
      }
    </style>
  </defs>
  <path class="st0" d="M128,488h40c6.8,0,12-5.2,12-12s-5.2-12-12-12h-40c-15.6,0-28-12.4-28-28v-40c0-6.8-5.2-12-12-12s-12,5.2-12,12v40c0,28.8,23.2,52,52,52ZM344,488h40c28.8,0,52-23.2,52-52v-40c0-6.8-5.2-12-12-12s-12,5.2-12,12v40c0,15.6-12.4,28-28,28h-40c-6.8,0-12,5.2-12,12s5.2,12,12,12ZM168,24h-40c-28.8,0-52,23.2-52,52v40c0,6.8,5.2,12,12,12s12-5.2,12-12v-40c0-15.6,12.4-28,28-28h40c6.8,0,12-5.2,12-12s-5.2-12-12-12ZM344,24c-6.8,0-12,5.2-12,12s0,1.2.4,2c-.4.8-.4,1.2-.4,2v36c0,28.8,23.2,52,52,52h36c.8,0,1.2,0,2-.4h2c6.8,0,12-5.2,12-12,0-50.4-41.2-91.6-92-91.6ZM384,104c-15.6,0-28-12.4-28-28v-26.8c28,4.8,50,26.8,54.8,54.8h-26.8ZM156,236c0,6.8,5.2,12,12,12h176c6.8,0,12-5.2,12-12s-5.2-12-12-12h-176c-6.8,0-12,5.2-12,12ZM356,296c0-6.8-5.2-12-12-12h-176c-6.8,0-12,5.2-12,12s5.2,12,12,12h176c6.8,0,12-5.2,12-12ZM276.8,356c0-6.8-5.2-12-12-12h-96c-6.8,0-12,5.2-12,12s5.2,12,12,12h96c6.8,0,12-5.2,12-12Z"/>
</svg>